<?xml version="1.0" standalone="no"?>
<!DOCTYPE svg PUBLIC "-//W3C//DTD SVG 20010904//EN"
 "http://www.w3.org/TR/2001/REC-SVG-20010904/DTD/svg10.dtd">
<svg version="1.0" xmlns="http://www.w3.org/2000/svg"
 width="968.000000pt" height="968.000000pt" viewBox="0 0 968.000000 968.000000"
 preserveAspectRatio="xMidYMid meet">
<metadata>
Created by potrace 1.14, written by Peter Selinger 2001-2017
</metadata>
<g transform="translate(0.000000,968.000000) scale(0.100000,-0.100000)"
fill="#000000" stroke="none">
<path d="M4489 7722 c-85 -44 -163 -92 -379 -232 -38 -25 -99 -70 -136 -100
-304 -248 -356 -296 -462 -419 -26 -30 -62 -70 -81 -90 l-33 -36 26 47 c24 43
39 104 17 69 -7 -10 -20 -12 -50 -7 -26 4 -50 2 -64 -6 -12 -6 -40 -13 -62
-13 -22 -1 -59 -5 -82 -9 -37 -7 -43 -5 -43 9 0 10 -5 15 -14 12 -7 -3 -35 -9
-61 -12 -47 -8 -79 2 -116 32 -12 10 -27 11 -60 4 -42 -9 -95 -8 -149 3 -85
16 -99 17 -119 6 -12 -6 -26 -22 -31 -35 -14 -37 -56 -60 -84 -47 -19 8 -30 6
-55 -9 -39 -24 -52 -24 -97 0 -35 19 -36 19 -70 -1 -48 -28 -90 -16 -118 34
-18 31 -75 88 -88 88 -3 0 -23 -18 -46 -39 -45 -43 -102 -76 -102 -59 0 7 -4
7 -13 0 -9 -8 -25 -7 -57 4 -43 15 -45 15 -59 -5 -7 -12 -20 -21 -27 -21 -8 0
-14 -4 -14 -10 0 -5 -11 -10 -25 -10 -24 0 -68 36 -78 63 -3 8 -10 7 -23 -5
-37 -32 -74 -40 -110 -23 -29 14 -37 14 -61 2 -35 -18 -82 -19 -108 -3 -36 23
-72 27 -85 11 -7 -8 -9 -15 -4 -15 4 0 -3 -11 -16 -25 -17 -18 -30 -23 -50
-20 -15 3 -41 -2 -59 -11 -32 -16 -83 -12 -109 9 -11 8 -16 7 -23 -6 -6 -9
-17 -17 -24 -17 -8 0 -15 -4 -15 -8 0 -14 -44 -8 -69 10 -17 12 -29 14 -36 8
-16 -13 -75 -6 -85 11 -6 9 -17 5 -45 -19 -19 -18 -47 -32 -60 -32 -14 0 -25
-5 -25 -11 0 -6 -13 -24 -30 -40 l-30 -30 -30 21 c-16 12 -30 26 -30 31 0 6
-4 8 -9 5 -5 -3 -14 1 -22 10 -25 30 -47 35 -80 18 -44 -22 -86 -11 -134 36
l-41 40 -79 -20 c-97 -25 -110 -25 -135 0 -11 11 -22 20 -25 20 -3 0 -5 -151
-5 -336 l0 -336 268 7 c147 3 440 8 652 10 212 3 462 7 555 10 177 6 768 14
1398 20 l367 3 0 -83 c0 -95 -5 -115 -30 -115 -23 0 -42 -24 -42 -52 0 -50 31
-209 42 -218 3 -3 14 -27 24 -55 45 -123 47 -125 141 -134 l59 -6 21 -91 c12
-50 31 -108 43 -128 12 -20 22 -47 22 -59 1 -33 21 -54 66 -66 22 -6 50 -21
61 -33 57 -63 75 -168 19 -112 -14 14 -20 28 -18 45 1 3 -22 17 -49 30 -28 13
-59 34 -69 47 -16 19 -24 22 -54 16 -46 -8 -46 -24 2 -77 21 -23 66 -76 99
-117 33 -41 75 -88 92 -104 27 -26 31 -37 31 -80 0 -27 -12 -93 -26 -146 -25
-95 -26 -98 -9 -134 38 -80 115 -100 224 -57 l53 22 42 -48 c103 -118 102
-117 169 -121 58 -4 64 -7 84 -38 16 -25 21 -43 16 -64 -7 -36 1 -46 87 -115
55 -44 71 -65 103 -131 63 -131 74 -148 108 -171 17 -13 46 -23 63 -23 42 0
60 -13 53 -39 -3 -13 4 -34 19 -56 13 -20 24 -43 24 -51 0 -8 15 -24 34 -35
40 -23 47 -56 39 -177 -6 -81 16 -182 39 -182 6 0 7 7 3 18 -21 48 -33 138
-28 213 5 72 8 82 29 91 13 6 24 17 24 24 0 25 21 26 93 4 88 -27 201 -82 236
-116 80 -77 149 -137 167 -144 14 -6 23 -21 27 -44 3 -20 19 -62 35 -94 21
-41 27 -64 22 -82 -4 -14 -10 -64 -13 -110 -7 -106 -66 -320 -88 -320 -4 0
-23 -21 -40 -47 -18 -27 -39 -52 -46 -56 -7 -4 -13 -21 -13 -37 0 -18 -8 -34
-20 -43 -18 -13 -19 -18 -9 -41 11 -23 9 -29 -17 -55 -27 -28 -29 -35 -31
-118 -2 -98 -5 -122 -18 -143 -5 -9 -4 -15 3 -18 6 -2 8 -10 5 -18 -3 -8 3
-21 13 -29 18 -13 18 -14 -3 -52 -14 -25 -19 -48 -16 -67 4 -21 1 -33 -12 -42
-9 -7 -14 -17 -10 -23 3 -6 0 -11 -7 -11 -9 -1 -7 -5 4 -14 10 -7 18 -25 18
-39 0 -34 -38 -97 -58 -98 -94 -4 -170 -19 -184 -37 -12 -13 -6 -15 46 -9 32
3 64 11 69 16 17 17 68 13 83 -6 18 -24 17 -58 -1 -93 -9 -16 -14 -42 -13 -58
2 -26 -10 -67 -34 -119 -6 -12 -8 -35 -5 -51 3 -16 2 -45 -3 -63 -5 -19 -11
-56 -14 -84 -2 -27 -11 -77 -19 -110 -19 -80 -35 -175 -43 -255 -7 -80 -35
-146 -64 -155 -36 -12 -170 14 -170 33 0 2 8 11 18 18 14 11 5 13 -69 14 -91
0 -172 -18 -226 -51 -46 -29 -158 -50 -224 -43 -68 7 -203 -18 -275 -52 -28
-13 -67 -24 -86 -24 -66 0 -201 -31 -247 -57 -35 -20 -150 -51 -231 -64 -3 0
6 -5 20 -11 38 -16 273 -22 349 -10 36 6 154 25 261 42 107 17 247 42 312 55
64 14 141 25 170 25 30 0 78 7 108 16 78 23 303 45 312 30 13 -18 -10 -152
-30 -184 -5 -7 -47 -19 -94 -26 -48 -8 -128 -31 -180 -51 -100 -40 -200 -65
-260 -65 -52 0 -113 -27 -126 -54 -10 -23 -18 -26 -212 -81 -82 -24 -111 -27
-217 -26 -116 2 -127 0 -225 -34 -57 -19 -126 -40 -153 -45 -28 -5 -80 -16
-116 -24 -36 -9 -104 -20 -152 -25 -48 -6 -111 -17 -140 -26 -29 -8 -72 -21
-97 -27 -39 -11 4 -13 305 -16 348 -2 349 -2 425 22 41 14 114 33 162 43 82
16 90 16 133 1 42 -16 50 -16 155 4 138 26 144 41 20 51 -29 3 -45 9 -45 17 0
9 16 14 45 16 25 2 92 6 150 10 58 3 174 8 259 9 84 2 179 6 210 11 52 7 101
6 109 -1 5 -4 -16 -148 -24 -168 -6 -16 127 -17 1955 -17 l1961 0 -10 26 c-6
14 -9 39 -8 57 0 18 -4 63 -11 101 -6 37 -9 76 -6 86 3 9 1 29 -5 44 -7 19 -7
42 1 74 10 47 7 70 -26 162 -9 25 -9 44 -2 64 6 18 6 30 0 35 -6 3 -10 26 -9
51 0 25 -7 62 -17 83 -10 20 -15 42 -12 47 6 10 -12 75 -27 96 -4 5 -5 20 -1
32 3 14 -1 30 -12 42 -12 13 -15 27 -11 46 5 20 2 30 -12 39 -15 11 -18 26
-17 77 0 46 -5 72 -19 97 -15 25 -17 37 -9 51 7 10 8 22 2 31 -5 8 -9 22 -9
33 0 10 -12 30 -27 44 -23 21 -25 26 -12 36 18 13 13 46 -6 46 -23 0 -29 22
-9 37 26 19 6 49 -32 46 -16 -1 -31 1 -34 6 -3 4 -14 13 -25 20 -13 8 -14 11
-3 7 23 -7 69 16 66 32 -2 9 -22 15 -56 17 -42 3 -51 1 -43 -8 6 -8 10 -64 9
-135 -1 -82 3 -126 11 -136 10 -12 9 -19 -3 -38 -14 -22 -18 -62 -16 -153 l1
-40 -23 40 c-17 32 -22 58 -24 130 -1 50 -7 119 -12 154 -6 36 -9 68 -6 72 7
12 -17 99 -27 94 -4 -3 -5 10 -2 28 3 19 0 44 -6 56 -7 12 -14 47 -17 78 -3
32 -8 62 -11 67 -3 5 -8 25 -10 43 -2 19 -11 45 -19 58 -9 13 -13 28 -10 34 3
5 -2 7 -13 4 -13 -3 -20 2 -24 18 -4 13 -1 26 5 30 7 5 6 17 -6 39 -11 24 -13
37 -5 46 8 9 4 19 -13 36 -13 13 -26 22 -30 21 -4 -2 -10 8 -14 21 -3 13 -15
26 -26 29 -17 5 -18 9 -8 27 6 12 9 28 6 35 -3 8 -1 17 5 21 6 3 4 10 -5 17
-17 13 -69 137 -57 137 4 0 16 -7 27 -15 10 -8 25 -15 32 -15 19 0 14 29 -8
42 -11 7 -20 20 -20 28 0 12 -2 12 -8 2 -5 -7 -16 -10 -26 -6 -20 8 -69 89
-64 106 2 6 -4 20 -14 30 -10 10 -16 23 -13 28 3 4 1 10 -5 12 -10 3 -18 28
-27 86 -3 18 -14 37 -25 43 -13 7 -18 17 -15 30 3 10 1 19 -3 19 -13 0 -17 32
-8 65 6 23 4 33 -8 42 -9 7 -19 29 -21 50 -4 41 -13 58 -13 25 0 -11 -5 -24
-11 -27 -6 -4 -9 4 -7 22 3 25 0 28 -24 25 -22 -2 -28 1 -26 15 0 10 0 29 -2
43 -2 21 -4 19 -9 -10 l-6 -35 -16 50 c-12 37 -22 51 -38 53 -13 2 -21 11 -21
23 0 14 -7 19 -27 19 l-27 0 22 -21 c27 -24 19 -43 -14 -35 -24 6 -74 50 -74
66 0 5 -7 16 -16 25 -23 22 -11 49 16 35 11 -6 20 -15 20 -20 0 -6 5 -10 10
-10 16 0 11 58 -5 68 -10 5 -16 26 -18 60 -2 45 -5 52 -22 52 -25 0 -59 52
-51 78 4 11 -6 29 -27 51 -27 29 -32 40 -29 73 4 35 2 38 -22 38 -19 0 -26 5
-26 20 0 11 -4 20 -10 20 -19 0 -50 44 -44 62 6 20 -17 48 -40 48 -9 0 -16 8
-16 20 0 15 -7 20 -25 20 -22 0 -25 -3 -19 -25 4 -17 2 -25 -6 -25 -9 0 -11
12 -6 43 5 32 4 39 -5 30 -14 -14 -79 13 -79 33 0 7 -8 10 -20 7 -11 -3 -26 0
-33 6 -8 6 -16 9 -19 6 -2 -3 -29 4 -59 15 l-54 19 43 1 c24 0 42 5 42 11 0 7
-12 9 -34 5 -18 -4 -41 -3 -50 0 -21 8 -67 74 -60 85 3 5 -6 11 -20 15 -14 3
-32 17 -41 30 -9 14 -20 22 -25 19 -6 -4 -10 3 -10 13 0 13 -9 22 -25 26 -30
8 -33 32 -5 41 28 9 25 34 -5 45 -17 7 -25 17 -25 34 0 13 4 26 8 28 5 2 12
15 16 30 5 24 3 28 -19 34 -26 6 -34 29 -12 37 9 3 9 7 1 18 -14 18 -14 52 0
62 20 13 -16 27 -73 27 -45 0 -52 2 -47 17 4 9 1 20 -6 24 -7 4 -13 18 -13 31
0 13 -6 23 -12 23 -11 0 -16 8 -12 18 1 1 2 17 4 36 3 38 20 53 50 45 11 -3
15 -2 10 3 -17 13 -45 93 -38 109 3 8 -3 17 -13 21 -11 4 -24 12 -30 17 -15
15 -24 56 -12 56 5 0 7 4 4 9 -4 5 -2 11 3 13 5 1 11 17 13 33 3 27 0 30 -22
27 -19 -3 -22 -1 -13 10 7 8 8 19 4 27 -5 8 -7 26 -5 41 3 15 0 38 -5 52 -5
14 -7 29 -3 32 3 4 7 16 9 28 2 11 11 26 20 33 19 14 12 30 -17 38 -12 3 -18
1 -14 -5 5 -7 -2 -9 -21 -4 -29 7 -84 -9 -97 -28 -5 -7 -8 -7 -8 2 0 19 -24
14 -37 -7 -7 -11 -27 -22 -45 -26 -18 -4 -40 -13 -48 -20 -21 -18 -88 -38
-100 -30 -21 13 -8 35 39 65 49 32 55 46 33 73 -7 8 -11 21 -10 28 2 7 -8 18
-22 26 -14 7 -21 13 -16 13 5 0 2 7 -5 16 -11 14 -11 18 3 28 13 10 14 15 3
29 -8 12 -10 29 -5 50 4 18 3 42 -1 54 -5 15 -2 27 10 39 14 15 15 23 7 37
-14 23 1 33 74 48 30 6 64 18 77 26 22 14 22 16 5 41 -14 22 -17 55 -18 212
-1 102 3 196 8 209 7 20 4 29 -19 53 -17 17 -37 28 -54 28 -35 0 -48 19 -25
36 16 11 17 18 6 71 -7 32 -24 83 -37 113 -14 30 -31 71 -38 91 -12 34 -17 45
-42 94 -6 11 -18 46 -27 77 -9 31 -22 63 -29 70 -6 8 -16 21 -22 30 -5 8 -29
43 -52 77 -24 34 -43 66 -43 69 0 17 -45 90 -74 120 -17 19 -69 61 -116 95
-94 68 -104 78 -172 181 -26 39 -65 93 -85 119 -44 55 -148 121 -208 132 -40
7 -142 38 -180 55 -79 36 -136 52 -180 51 -27 -1 -68 -1 -90 0 -22 0 -70 1
-107 1 -37 1 -66 6 -65 11 5 23 -25 14 -114 -31z m-1119 -929 c0 -5 -5 -15
-10 -23 -8 -12 -10 -11 -10 8 0 12 5 22 10 22 6 0 10 -3 10 -7z m3035 -1513
c-3 -5 -11 -10 -16 -10 -6 0 -7 5 -4 10 3 6 11 10 16 10 6 0 7 -4 4 -10z
m-2852 -122 c21 -29 60 -77 87 -106 28 -29 50 -60 50 -69 0 -13 -2 -14 -17 -2
-43 33 -66 57 -101 104 -20 28 -39 52 -42 55 -11 9 -40 54 -40 62 0 24 31 1
63 -44z m3712 -1448 c3 -5 -3 -10 -14 -10 -12 0 -21 5 -21 10 0 6 6 10 14 10
8 0 18 -4 21 -10z m195 -316 c0 -8 -4 -14 -10 -14 -5 0 -10 9 -10 21 0 11 5
17 10 14 6 -3 10 -13 10 -21z m147 -291 c-3 -3 -10 -2 -16 2 -7 4 -7 10 2 20
10 11 13 11 15 -2 2 -8 1 -17 -1 -20z m-62 -103 c-20 -22 -31 -20 -22 5 4 8
14 15 23 15 16 0 16 -2 -1 -20z m55 -20 c0 -5 -2 -10 -4 -10 -3 0 -8 5 -11 10
-3 6 -1 10 4 10 6 0 11 -4 11 -10z m200 -306 c0 -17 -22 -14 -28 4 -2 7 3 12
12 12 9 0 16 -7 16 -16z m40 -80 c0 -8 -5 -12 -10 -9 -6 4 -8 11 -5 16 9 14
15 11 15 -7z m128 -217 c2 -20 -1 -37 -6 -37 -14 0 -35 47 -28 65 10 28 31 11
34 -28z m356 -1290 c4 -41 2 -47 -15 -47 -16 0 -19 7 -19 44 0 26 5 46 13 49
16 6 16 7 21 -46z m-3464 -767 c14 -26 -10 -84 -42 -101 -14 -9 -68 -14 -141
-16 -101 -2 -124 0 -157 17 -23 12 -79 24 -137 31 -112 13 -151 33 -87 45 48
9 80 9 219 -1 91 -6 124 -4 190 10 44 10 88 19 97 20 10 1 21 4 24 8 12 12 23
8 34 -13z"/>
<path d="M6481 5298 c5 -10 12 -18 15 -18 3 0 3 4 -1 9 -3 5 7 11 22 13 25 3
24 4 -9 9 -33 4 -35 3 -27 -13z"/>
<path d="M6480 4946 c0 -9 5 -16 10 -16 6 0 10 4 10 9 0 6 -4 13 -10 16 -5 3
-10 -1 -10 -9z"/>
<path d="M6866 4092 c-12 -20 -2 -58 16 -59 10 -1 18 2 18 8 0 5 -5 9 -11 9
-6 0 -9 6 -6 13 7 18 -8 43 -17 29z"/>
<path d="M4837 3480 c3 -30 10 -59 15 -65 7 -7 8 6 3 35 -12 71 -25 93 -18 30z"/>
<path d="M355 3410 c8 -13 55 -13 75 0 11 7 2 10 -33 10 -30 0 -46 -4 -42 -10z"/>
<path d="M7511 3266 c-8 -10 -9 -16 -1 -21 5 -3 10 -1 10 4 0 6 14 11 31 11
17 0 28 4 24 10 -9 15 -51 12 -64 -4z"/>
<path d="M65 2980 c-4 -6 7 -10 25 -10 18 0 29 4 25 10 -3 6 -15 10 -25 10
-10 0 -22 -4 -25 -10z"/>
<path d="M1498 2753 c-32 -5 -38 -23 -9 -23 26 0 51 10 51 21 0 5 -3 8 -7 8
-5 -1 -20 -4 -35 -6z"/>
<path d="M0 2715 c0 -16 19 -18 60 -6 24 7 24 7 -9 14 -47 10 -51 9 -51 -8z"/>
<path d="M1128 2717 c-21 -6 -38 -15 -38 -22 0 -12 146 -4 190 10 24 8 24 8 5
16 -28 11 -112 9 -157 -4z"/>
<path d="M615 2637 c-44 -4 -120 -13 -170 -20 l-90 -12 55 -6 c174 -19 222
-21 262 -11 24 6 60 14 81 17 21 3 37 12 37 19 0 18 -71 23 -175 13z"/>
<path d="M7996 2573 c-6 -14 -5 -15 5 -6 7 7 10 15 7 18 -3 3 -9 -2 -12 -12z"/>
<path d="M650 2489 c-41 -5 -86 -13 -100 -18 -14 -6 -42 -13 -62 -17 -21 -3
-35 -10 -32 -16 8 -12 171 -1 252 18 35 8 89 14 120 15 39 0 51 3 37 8 -35 14
-137 18 -215 10z"/>
<path d="M165 2437 c-16 -13 -15 -14 13 -9 18 2 32 8 32 13 0 13 -24 11 -45
-4z"/>
<path d="M248 2433 c7 -3 16 -2 19 1 4 3 -2 6 -13 5 -11 0 -14 -3 -6 -6z"/>
<path d="M1300 2423 c-14 -3 -44 -11 -68 -19 -50 -16 -108 -18 -117 -4 -10 16
-78 12 -147 -10 -34 -11 -73 -20 -85 -20 -32 0 -28 -15 7 -30 25 -10 49 -9
149 9 65 12 126 18 136 15 17 -7 243 43 260 58 9 8 -89 9 -135 1z"/>
<path d="M645 2363 c-33 -1 -105 -7 -160 -13 -55 -5 -143 -12 -195 -16 -52 -3
-111 -9 -130 -13 -34 -7 -34 -8 -10 -16 14 -4 30 -15 37 -24 10 -14 32 -16
144 -14 73 2 148 8 168 14 20 6 50 15 66 20 17 6 64 12 105 15 75 6 130 20
130 34 0 10 -39 20 -70 18 -14 -1 -52 -3 -85 -5z"/>
<path d="M3556 2341 c-11 -4 -15 -10 -10 -14 14 -8 54 3 54 14 0 11 -17 11
-44 0z"/>
<path d="M0 2320 c0 -5 5 -10 10 -10 6 0 10 5 10 10 0 6 -4 10 -10 10 -5 0
-10 -4 -10 -10z"/>
<path d="M945 2230 c-16 -7 -13 -9 18 -9 20 -1 37 4 37 9 0 12 -27 12 -55 0z"/>
<path d="M428 2189 c-32 -38 -36 -40 -118 -50 -47 -6 -136 -18 -197 -26 l-113
-16 0 -30 0 -30 69 6 c39 3 80 11 92 18 12 6 71 15 132 20 124 10 170 20 242
54 35 16 64 22 95 20 41 -3 170 20 145 26 -5 1 -44 2 -85 3 -51 1 -83 6 -100
17 -14 9 -48 19 -77 22 -50 6 -52 5 -85 -34z"/>
<path d="M820 2210 c0 -5 6 -10 14 -10 8 0 18 5 21 10 3 6 -3 10 -14 10 -12 0
-21 -4 -21 -10z"/>
<path d="M2408 2143 c6 -2 18 -2 25 0 6 3 1 5 -13 5 -14 0 -19 -2 -12 -5z"/>
<path d="M1433 2116 c-82 -15 -87 -23 -12 -24 56 -1 99 12 99 30 0 9 -6 9 -87
-6z"/>
<path d="M2165 2094 c-38 -8 -97 -21 -130 -29 -59 -15 -59 -15 -10 -8 28 3 70
5 94 4 43 -1 136 23 156 40 13 12 -26 10 -110 -7z"/>
<path d="M1067 2071 c-32 -7 -55 -16 -52 -19 9 -10 137 -3 173 9 18 6 31 14
28 17 -11 10 -91 7 -149 -7z"/>
<path d="M1675 2050 c-22 -4 -92 -13 -156 -18 -123 -12 -193 -33 -210 -63 -12
-23 -15 -23 100 1 51 11 128 19 170 19 93 -1 144 8 195 33 30 15 36 22 25 29
-17 10 -68 10 -124 -1z"/>
<path d="M2570 2029 c-58 -4 -139 -12 -180 -18 -41 -6 -138 -15 -215 -21 -137
-10 -225 -26 -225 -42 0 -13 202 0 265 17 43 12 97 17 194 16 129 -1 241 16
321 48 23 9 21 10 -15 9 -22 0 -87 -4 -145 -9z"/>
<path d="M640 2014 c-28 -13 -77 -16 -249 -15 -144 0 -219 -3 -228 -11 -8 -6
-47 -13 -88 -16 -62 -4 -75 -8 -75 -22 0 -31 55 -38 180 -23 75 9 145 11 200
6 47 -4 99 -6 117 -4 38 3 74 -14 67 -33 -8 -21 -194 -57 -309 -61 -94 -3
-153 -15 -192 -40 l-28 -19 31 -8 c36 -9 59 -32 49 -49 -5 -7 -25 -9 -61 -4
-45 5 -54 4 -54 -9 0 -23 33 -24 128 -5 30 6 52 16 52 23 0 38 176 82 380 96
63 4 135 13 160 19 25 6 68 16 95 22 91 19 90 19 67 34 -11 8 -52 15 -93 17
-63 3 -74 6 -73 21 1 9 -5 17 -14 17 -9 0 -1 13 22 34 20 19 36 37 36 40 0 12
-87 5 -120 -10z"/>
<path d="M2890 1918 c-19 -5 -57 -13 -84 -18 -27 -5 -51 -12 -55 -16 -10 -11
151 4 162 15 6 6 22 11 37 12 23 0 23 1 5 9 -24 10 -21 10 -65 -2z"/>
<path d="M3018 1923 c6 -2 18 -2 25 0 6 3 1 5 -13 5 -14 0 -19 -2 -12 -5z"/>
<path d="M4730 1920 c0 -12 2 -12 105 -9 44 1 92 3 107 3 14 1 24 4 21 9 -7
11 -233 9 -233 -3z"/>
<path d="M8312 1820 c0 -19 2 -27 5 -17 2 9 2 25 0 35 -3 9 -5 1 -5 -18z"/>
<path d="M2064 1818 c-7 -11 85 -9 111 2 14 7 1 9 -43 8 -35 -1 -65 -5 -68
-10z"/>
<path d="M1708 1783 c6 -2 18 -2 25 0 6 3 1 5 -13 5 -14 0 -19 -2 -12 -5z"/>
<path d="M2803 1763 c9 -2 25 -2 35 0 9 3 1 5 -18 5 -19 0 -27 -2 -17 -5z"/>
<path d="M8316 1735 c-3 -9 0 -15 9 -15 16 0 20 16 6 24 -5 3 -11 -1 -15 -9z"/>
<path d="M4765 1720 l-40 -7 43 -2 c23 0 42 4 42 9 0 6 -1 9 -2 9 -2 -1 -21
-5 -43 -9z"/>
<path d="M8378 1723 c-35 -5 -37 -27 -3 -29 15 -1 25 4 25 11 0 7 6 16 13 18
14 6 5 6 -35 0z"/>
<path d="M2235 1680 c-49 -11 -110 -19 -135 -20 -69 -2 -142 -11 -136 -17 5
-6 71 -15 206 -29 45 -5 68 -1 124 20 37 14 77 26 87 26 27 0 23 15 -6 28 -31
14 -28 15 -140 -8z"/>
<path d="M3310 1653 c-14 -3 -29 -9 -35 -15 -12 -12 102 -1 125 13 16 9 -43
10 -90 2z"/>
<path d="M1115 1630 c-49 -11 -125 -24 -169 -30 -73 -11 -116 -26 -116 -42 0
-10 111 -32 150 -30 19 2 69 9 110 17 41 7 123 16 182 19 95 5 135 11 226 31
12 3 22 9 22 14 0 13 -54 23 -140 27 -41 1 -97 5 -125 7 -30 3 -86 -2 -140
-13z"/>
<path d="M1785 1630 c-19 -7 -19 -8 -2 -15 10 -4 23 -3 29 3 14 14 -3 21 -27
12z"/>
<path d="M3910 1593 c-8 -4 -20 -13 -27 -22 -9 -13 -14 -14 -24 -3 -7 6 -26
12 -43 12 -27 0 -28 -1 -12 -13 10 -7 16 -22 14 -33 -3 -16 2 -19 32 -16 65 5
186 35 167 41 -10 4 -18 10 -18 14 3 23 -3 27 -36 26 -21 0 -45 -3 -53 -6z"/>
<path d="M4300 1580 c0 -5 5 -10 10 -10 6 0 10 5 10 10 0 6 -4 10 -10 10 -5 0
-10 -4 -10 -10z"/>
<path d="M0 1525 l0 -27 65 4 c104 6 102 33 -3 44 l-62 7 0 -28z"/>
<path d="M470 1538 c-57 -12 -71 -25 -37 -33 47 -12 270 16 292 36 12 12 -197
10 -255 -3z"/>
<path d="M3500 1540 c-14 -4 -53 -8 -88 -9 -34 -1 -79 -8 -100 -17 -84 -36
-150 -55 -245 -69 -116 -17 -179 -34 -171 -47 7 -11 270 -4 409 11 111 12 151
26 134 48 -9 10 -7 14 7 19 11 3 33 11 49 19 17 7 40 16 52 20 11 3 27 12 33
20 11 13 7 15 -21 14 -19 -1 -45 -5 -59 -9z"/>
<path d="M1945 1520 c-8 -13 25 -13 45 0 12 8 9 10 -12 10 -15 0 -30 -4 -33
-10z"/>
<path d="M938 1473 c12 -2 30 -2 40 0 9 3 -1 5 -23 4 -22 0 -30 -2 -17 -4z"/>
<path d="M1533 1473 c-13 -2 -23 -8 -23 -13 0 -5 14 -4 30 1 27 10 42 21 23
18 -5 -1 -18 -4 -30 -6z"/>
<path d="M4713 1467 c-24 -6 -43 -14 -43 -19 0 -4 -7 -8 -15 -8 -8 0 -15 -7
-15 -16 0 -11 6 -14 23 -8 22 7 71 20 115 31 12 3 22 12 22 19 0 16 -25 16
-87 1z"/>
<path d="M4845 1470 c7 -12 69 -12 105 0 18 6 6 8 -43 9 -43 1 -66 -3 -62 -9z"/>
<path d="M2444 1420 c-106 -23 -163 -60 -118 -77 8 -3 32 2 52 10 20 9 80 28
132 43 52 14 102 30 110 35 26 15 -90 8 -176 -11z"/>
<path d="M655 1410 c-22 -10 -54 -19 -71 -19 -38 -1 -94 -19 -115 -37 -19 -17
-66 -18 -71 -2 -6 17 -258 11 -278 -6 -8 -8 -39 -22 -67 -32 -37 -13 -53 -24
-53 -36 0 -22 0 -22 58 -3 26 8 85 19 132 24 172 20 266 32 310 42 60 13 220
72 220 82 0 11 -22 7 -65 -13z"/>
<path d="M4427 1410 c-46 -8 -68 -26 -45 -35 15 -6 153 9 205 22 77 18 -71 31
-160 13z"/>
<path d="M4160 1358 c-36 -5 -86 -20 -112 -33 -26 -14 -54 -25 -61 -25 -8 0
-22 -10 -33 -21 l-19 -22 58 7 c32 4 74 14 92 22 19 8 50 14 70 14 19 0 58 11
87 25 28 14 59 25 67 26 12 0 10 3 -4 9 -25 11 -61 10 -145 -2z"/>
<path d="M1723 1344 c-57 -7 -144 -21 -195 -31 -59 -11 -145 -18 -233 -18 -77
-1 -167 -7 -200 -14 -33 -7 -91 -16 -130 -20 -38 -5 -96 -16 -128 -26 -54 -16
-61 -16 -112 1 -73 22 -234 15 -320 -16 -45 -16 -101 -24 -220 -31 -88 -6
-166 -12 -173 -14 -6 -3 -12 -18 -12 -35 0 -28 2 -31 23 -24 59 19 100 22 236
17 119 -5 158 -3 202 10 81 24 276 47 402 47 82 0 135 6 197 22 72 18 117 22
300 24 196 2 223 4 305 28 94 26 266 84 274 92 8 8 -114 1 -216 -12z"/>
<path d="M2180 1309 c-111 -21 -185 -45 -188 -63 -3 -15 2 -16 35 -11 21 4 52
11 68 15 17 5 56 12 87 16 57 6 86 23 73 44 -7 11 -11 11 -75 -1z"/>
<path d="M3450 1244 c-8 -1 -68 -8 -132 -15 -83 -8 -116 -15 -111 -23 4 -6 -1
-5 -10 3 -18 14 -92 7 -82 -8 2 -5 -12 -12 -33 -15 -20 -4 -57 -13 -82 -21
-25 -7 -62 -16 -84 -20 -24 -4 -40 -13 -43 -23 -3 -13 -29 -21 -115 -35 -113
-19 -153 -31 -143 -46 5 -10 80 -5 140 9 22 6 74 12 116 14 41 3 88 10 103 16
15 5 32 8 36 5 25 -15 266 41 401 93 57 22 113 43 124 47 44 14 -30 31 -85 19z"/>
<path d="M1825 1184 c-38 -13 -99 -33 -135 -43 -36 -10 -74 -22 -85 -28 -11
-6 -45 -16 -75 -23 -30 -6 -91 -20 -135 -30 -88 -21 -296 -30 -357 -16 -20 5
-45 5 -55 1 -10 -5 -21 -8 -25 -7 -12 3 -202 -28 -236 -37 -19 -6 -40 -16 -48
-22 -32 -26 -109 -59 -139 -59 -17 0 -55 -7 -83 -15 -56 -17 -102 -11 -102 12
0 13 -11 14 -67 8 -77 -9 -67 -9 -153 -2 -73 5 -130 -7 -130 -27 0 -11 10 -13
40 -9 22 3 40 3 40 0 0 -4 -18 -11 -40 -17 -40 -11 -40 -11 -40 -60 0 -38 4
-50 15 -50 18 0 150 35 191 50 16 7 79 14 139 16 61 3 137 9 170 15 33 5 121
13 195 18 204 14 351 38 495 83 247 77 280 87 380 113 55 15 146 42 203 61 56
19 112 34 123 34 15 0 19 5 15 15 -3 9 1 18 9 21 8 4 15 10 15 15 0 16 -54 9
-125 -17z"/>
<path d="M4242 1080 c-98 -23 -39 -83 63 -64 43 8 48 14 32 48 -13 28 -32 31
-95 16z"/>
<path d="M3700 1034 c-63 -13 -176 -29 -250 -34 -128 -10 -328 -39 -415 -60
-22 -5 -79 -10 -126 -10 -88 0 -318 -21 -438 -41 -36 -5 -109 -9 -161 -8 -156
5 -358 -42 -479 -112 -39 -23 -50 -34 -42 -42 15 -15 14 -27 -3 -27 -22 0 -70
-20 -63 -26 7 -8 168 16 191 29 18 9 18 11 3 22 -15 11 -14 13 9 23 14 7 43
12 65 12 32 0 39 -3 37 -17 -3 -15 4 -18 42 -17 25 1 86 9 135 18 50 9 117 16
150 16 71 1 131 13 203 42 46 19 58 20 100 10 102 -25 503 3 547 38 8 7 173
36 309 55 22 3 44 12 50 21 8 11 32 15 89 16 47 0 83 5 90 13 10 9 149 65 205
81 7 2 10 8 7 14 -10 17 -133 9 -255 -16z"/>
<path d="M0 1030 c0 -12 24 -12 60 0 21 7 19 8 -17 9 -24 1 -43 -3 -43 -9z"/>
<path d="M2060 1030 c0 -4 -64 -10 -142 -12 -79 -3 -155 -11 -170 -17 -15 -6
-67 -15 -115 -21 -145 -18 -193 -31 -193 -54 0 -7 -17 -12 -40 -13 -22 -1 -83
-13 -136 -27 -53 -15 -106 -26 -120 -26 -24 0 -105 -40 -139 -70 -11 -9 -28
-20 -37 -23 -10 -4 -18 -11 -18 -16 0 -10 38 -3 55 10 6 4 53 12 105 18 53 6
132 17 175 25 44 8 103 17 131 20 28 4 74 17 101 31 50 24 221 69 378 99 219
43 250 51 250 66 0 11 -12 15 -42 16 -24 0 -43 -2 -43 -6z"/>
<path d="M4693 1022 c-87 -29 -97 -55 -13 -33 19 5 47 12 61 15 31 7 48 36 21
35 -9 0 -41 -8 -69 -17z"/>
<path d="M1439 756 c-15 -15 -162 -35 -304 -41 -95 -4 -170 -12 -185 -20 -27
-13 -65 -21 -145 -30 -27 -3 -57 -8 -65 -10 -8 -3 -21 -1 -29 4 -15 10 -7 13
57 26 17 4 32 11 32 16 0 5 9 9 19 9 11 0 22 4 25 9 4 5 -42 10 -106 10 -62 0
-149 4 -194 7 -86 7 -154 -3 -239 -35 -27 -11 -77 -25 -110 -31 -33 -6 -90
-26 -127 -43 l-68 -32 0 -79 c0 -76 1 -78 22 -73 13 3 84 18 158 32 141 28
314 76 365 100 50 25 139 50 165 49 14 -1 61 -5 105 -8 44 -3 108 -8 142 -12
37 -3 94 1 145 10 45 8 117 20 158 26 41 7 125 27 185 46 61 18 138 38 173 45
34 6 62 14 62 18 0 7 -234 14 -241 7z"/>
<path d="M3265 740 c-129 -6 -156 -10 -195 -30 -31 -16 -72 -25 -140 -30 -52
-5 -126 -15 -165 -24 -38 -8 -96 -18 -127 -21 -36 -4 -58 -11 -58 -19 0 -7
-36 -22 -82 -35 -46 -13 -105 -31 -133 -42 -27 -10 -72 -24 -100 -30 -27 -6
-81 -21 -120 -32 -112 -32 -201 -47 -340 -57 -129 -10 -155 -9 -155 8 0 23 94
46 235 56 83 7 117 15 144 35 l24 18 -25 5 c-13 2 -53 -2 -89 -11 -86 -20
-167 -21 -179 -1 -11 18 -151 19 -215 2 -22 -6 -123 -21 -225 -32 -102 -12
-221 -31 -265 -42 -90 -24 -143 -26 -186 -8 -40 17 -157 8 -234 -18 -54 -18
-129 -27 -332 -37 -35 -2 -67 -6 -72 -9 -9 -6 -193 -36 -218 -36 -10 0 -13
-28 -13 -105 0 -58 3 -105 8 -105 4 0 50 7 102 15 52 9 149 18 215 19 85 3
132 9 160 21 45 20 131 31 352 45 148 9 301 31 492 71 245 51 318 59 551 59
124 0 275 5 335 11 61 7 166 12 235 13 69 1 169 7 222 14 92 11 312 63 347 81
9 5 21 9 26 9 63 3 155 16 148 22 -4 4 -46 10 -93 13 -47 2 -98 10 -115 17
l-30 12 65 18 c36 9 111 23 167 30 117 15 137 23 110 44 -17 13 -11 15 50 19
63 4 236 30 290 43 40 10 25 21 -38 28 -66 6 -100 6 -334 -4z m-467 -201 c2
-13 -10 -19 -61 -28 -90 -16 -127 -14 -127 4 0 9 12 18 30 22 17 3 33 10 36
15 3 5 31 8 62 6 43 -2 58 -7 60 -19z"/>
<path d="M1960 700 c0 -5 9 -10 20 -10 11 0 20 5 20 10 0 6 -9 10 -20 10 -11
0 -20 -4 -20 -10z"/>
<path d="M1845 611 c-3 -6 6 -8 22 -5 37 7 42 14 10 14 -14 0 -28 -4 -32 -9z"/>
<path d="M720 560 c-24 -8 -23 -8 8 -9 20 -1 31 3 27 9 -3 6 -7 10 -8 9 -1 -1
-13 -5 -27 -9z"/>
<path d="M3947 394 c-1 -2 -50 -15 -107 -30 -76 -19 -127 -26 -185 -25 -44 1
-127 -5 -185 -14 -58 -8 -129 -15 -158 -15 -30 0 -117 -9 -195 -19 -78 -11
-236 -29 -352 -41 -231 -23 -348 -43 -392 -65 -15 -8 -37 -15 -48 -15 -11 0
-58 -12 -104 -25 -47 -14 -95 -25 -108 -25 -13 0 -50 -13 -83 -30 -37 -19 -94
-36 -152 -45 -259 -44 -261 -43 102 -41 361 2 446 11 675 71 53 13 146 34 208
45 62 11 166 32 232 46 66 14 144 31 173 36 28 6 52 15 52 19 0 11 55 26 138
39 41 6 92 20 114 31 32 17 51 19 92 14 167 -21 276 -11 371 35 54 26 58 29
35 34 -48 12 -119 23 -123 20z"/>
<path d="M2187 284 c-3 -3 -27 -7 -54 -8 -27 -1 -55 -6 -62 -10 -7 -5 -56 -6
-110 -3 -88 6 -297 -10 -376 -27 -16 -4 -84 -18 -150 -31 -66 -13 -163 -33
-215 -44 -103 -22 -186 -28 -160 -11 24 16 -51 12 -81 -4 -15 -7 -82 -19 -150
-26 -68 -7 -131 -16 -140 -21 -9 -4 -65 -15 -125 -24 -59 -9 -115 -20 -124
-25 -8 -4 -47 -11 -85 -14 -51 -4 -64 -2 -46 5 18 7 21 13 13 21 -20 20 -135
7 -187 -20 -16 -9 -37 -18 -45 -19 -107 -19 -27 -21 605 -19 784 2 771 1 1025
80 63 20 174 52 245 72 128 35 275 96 275 114 0 5 10 11 23 13 12 2 1 5 -24 6
-25 0 -48 -2 -52 -5z"/>
</g>
</svg>
